<svg xmlns="http://www.w3.org/2000/svg" viewBox="0 0 64 64"><path d="M32 64c-.6 0-1.2-.2-1.7-.5L1.4 44.3c-.3-.2-.6-.5-.8-.8l-.1-.1c-.3-.5-.5-1.1-.5-1.7V22.3c0-.4.1-.9.3-1.3.2-.4.4-.7.8-1 .1-.1.2-.1.2-.2h.1L30.3.6c1-.7 2.4-.7 3.4 0l28.9 19.2c.5.4 1 .9 1.2 1.5.1.4.2.7.2 1.1v19.4c0 1-.5 2-1.4 2.5L33.7 63.5c-.5.3-1.1.5-1.7.5zm3-20.9v12.2l20.5-13.6-9.1-6.1L35 43.1zM8.5 41.7L29 55.3V43.1l-11.3-7.5-9.2 6.1zm14.6-9.8l8.9 5.9 8.9-5.9-8.9-6-8.9 6zm28.7.1l6.1 4.1V28l-6.1 4zM6.1 27.9V36l6.1-4.1-6.1-4zM35 20.7l11.4 7.6 9.1-6L35 8.7v12zM8.5 22.3l9.1 6L29 20.7v-12L8.5 22.3z"/></svg>