<?xml version="1.0" standalone="no"?>
<!DOCTYPE svg PUBLIC "-//W3C//DTD SVG 20010904//EN"
 "http://www.w3.org/TR/2001/REC-SVG-20010904/DTD/svg10.dtd">
<svg version="1.0" xmlns="http://www.w3.org/2000/svg"
 width="260.000000pt" height="260.000000pt" viewBox="0 0 260.000000 260.000000"
 preserveAspectRatio="xMidYMid meet">
<metadata>
Created by potrace 1.11, written by Peter Selinger 2001-2013
</metadata>
<g transform="translate(0.000000,260.000000) scale(0.100000,-0.100000)"
fill="#000000" stroke="none">
<path d="M370 1300 l0 -770 240 0 240 0 2 330 3 330 160 -257 160 -258 121 -3
121 -3 164 277 164 277 3 -347 2 -346 240 0 240 0 0 678 c0 374 -3 720 -7 771
l-6 91 -214 -2 -215 -3 -237 -399 c-130 -219 -241 -398 -246 -399 -6 0 -120
181 -255 401 l-245 402 -217 0 -218 0 0 -770z"/>
</g>
</svg>
